<svg width="214" height="92" viewBox="0 0 214 92" fill="none" xmlns="http://www.w3.org/2000/svg">
<path d="M14.5 57L23.5 78.5H182.5L191.5 58M186 60L177 82H30.5L21 60" stroke="#A29462"/>
<path d="M13.5395 32.8052C13.4319 33.0595 13.5509 33.3529 13.8052 33.4605C14.0595 33.5681 14.3529 33.4491 14.4605 33.1948L13.5395 32.8052ZM23.4734 10.6042V10.1042H23.142L23.0129 10.4094L23.4734 10.6042ZM182.527 10.6042L182.987 10.4094L182.858 10.1042H182.527V10.6042ZM177.042 8L177.505 7.81021L177.377 7.5H177.042V8ZM29.4566 8V7.5H29.1213L28.994 7.81021L29.4566 8ZM14.4605 33.1948L23.9339 10.799L23.0129 10.4094L13.5395 32.8052L14.4605 33.1948ZM23.4734 11.1042H182.527V10.1042H23.4734V11.1042ZM182.066 10.799L191.54 33.1948L192.46 32.8052L182.987 10.4094L182.066 10.799ZM186.479 29.6852L177.505 7.81021L176.579 8.18979L185.554 30.0648L186.479 29.6852ZM177.042 7.5H29.4566V8.5H177.042V7.5ZM28.994 7.81021L20.0192 29.6852L20.9444 30.0648L29.9192 8.18979L28.994 7.81021ZM23.4734 11.1042H28.3882V10.1042H23.4734V11.1042ZM28.3882 11.1042H178.11V10.1042H28.3882V11.1042ZM178.11 11.1042H182.527V10.1042H178.11V11.1042ZM186.479 29.6852L178.573 10.4144L177.648 10.794L185.554 30.0648L186.479 29.6852ZM178.573 10.4144L177.505 7.81021L176.579 8.18979L177.648 10.794L178.573 10.4144ZM28.994 7.81021L27.9256 10.4144L28.8507 10.794L29.9192 8.18979L28.994 7.81021ZM27.9256 10.4144L20.0192 29.6852L20.9444 30.0648L28.8507 10.794L27.9256 10.4144Z" fill="#A29462"/>
<rect x="192" y="43" width="9" height="1" fill="#D9D9D9"/>
<rect x="192" y="42" width="6" height="4" fill="#D9D9D9"/>
<rect x="191" y="43" width="1" height="2" fill="#D9D9D9"/>
<rect x="198" y="44" width="6" height="1" fill="#D9D9D9"/>
<rect x="197" y="45" width="4" height="1" fill="#D9D9D9"/>
<rect x="192" y="46" width="6" height="1" fill="#D9D9D9"/>
<rect x="191" y="45" width="1" height="1" fill="#D9D9D9"/>
<rect x="192" y="41" width="3" height="1" fill="#9C9B78"/>
<rect x="191" y="42" width="1" height="1" fill="#BEBB9C"/>
<rect x="198" y="42" width="2" height="1" fill="#BDB495"/>
<rect x="198" y="46" width="2" height="1" fill="#BDB495"/>
<rect x="192" y="47" width="3" height="1" fill="#BDB495"/>
<rect x="191" y="46" width="1" height="1" fill="#BDB495"/>
<rect x="190" y="43" width="1" height="3" fill="#BDB495"/>
<rect x="201" y="43" width="1" height="1" fill="#BDB495"/>
<rect x="201" y="45" width="1" height="1" fill="#BDB495"/>
<rect width="9" height="1" transform="matrix(-1 0 0 1 19 43)" fill="#D9D9D9"/>
<rect width="6" height="4" transform="matrix(-1 0 0 1 19 42)" fill="#D9D9D9"/>
<rect width="1" height="2" transform="matrix(-1 0 0 1 20 43)" fill="#D9D9D9"/>
<rect width="6" height="1" transform="matrix(-1 0 0 1 13 44)" fill="#D9D9D9"/>
<rect width="4" height="1" transform="matrix(-1 0 0 1 14 45)" fill="#D9D9D9"/>
<rect width="6" height="1" transform="matrix(-1 0 0 1 19 46)" fill="#D9D9D9"/>
<rect width="1" height="1" transform="matrix(-1 0 0 1 20 45)" fill="#D9D9D9"/>
<rect width="3" height="1" transform="matrix(-1 0 0 1 19 41)" fill="#9C9B78"/>
<rect width="1" height="1" transform="matrix(-1 0 0 1 20 42)" fill="#BEBB9C"/>
<rect width="2" height="1" transform="matrix(-1 0 0 1 13 42)" fill="#BDB495"/>
<rect width="2" height="1" transform="matrix(-1 0 0 1 13 46)" fill="#BDB495"/>
<rect width="3" height="1" transform="matrix(-1 0 0 1 19 47)" fill="#BDB495"/>
<rect width="1" height="1" transform="matrix(-1 0 0 1 20 46)" fill="#BDB495"/>
<rect width="1" height="3" transform="matrix(-1 0 0 1 21 43)" fill="#BDB495"/>
<rect width="1" height="1" transform="matrix(-1 0 0 1 10 43)" fill="#BDB495"/>
<rect width="1" height="1" transform="matrix(-1 0 0 1 10 45)" fill="#BDB495"/>
<path d="M68.6641 44.9141C68.8984 45.1745 69.0703 45.4609 69.1797 45.7734C69.2943 46.0807 69.3516 46.4401 69.3516 46.8516C69.3516 47.8307 68.9896 48.638 68.2656 49.2734C67.5417 49.9089 66.6432 50.2266 65.5703 50.2266C65.0755 50.2266 64.5807 50.151 64.0859 50C63.5911 49.8438 63.1641 49.6562 62.8047 49.4375L62.4688 50.0078H61.8438L61.7344 46.2109H62.3672C62.4974 46.6797 62.6484 47.1042 62.8203 47.4844C62.9974 47.8594 63.2292 48.2109 63.5156 48.5391C63.7865 48.8464 64.1016 49.0911 64.4609 49.2734C64.8255 49.4557 65.2474 49.5469 65.7266 49.5469C66.0859 49.5469 66.3984 49.5 66.6641 49.4062C66.9349 49.3125 67.1536 49.1797 67.3203 49.0078C67.487 48.8359 67.6094 48.6354 67.6875 48.4062C67.7708 48.1719 67.8125 47.9036 67.8125 47.6016C67.8125 47.1589 67.6875 46.7474 67.4375 46.3672C67.1875 45.9818 66.8151 45.6901 66.3203 45.4922C65.9818 45.3568 65.5938 45.2083 65.1562 45.0469C64.7188 44.8802 64.3411 44.724 64.0234 44.5781C63.3984 44.2969 62.9115 43.9297 62.5625 43.4766C62.2188 43.0182 62.0469 42.4219 62.0469 41.6875C62.0469 41.2656 62.1328 40.8724 62.3047 40.5078C62.4766 40.1432 62.7214 39.8177 63.0391 39.5312C63.3411 39.2604 63.6979 39.0495 64.1094 38.8984C64.5208 38.7422 64.9505 38.6641 65.3984 38.6641C65.9089 38.6641 66.3646 38.7422 66.7656 38.8984C67.1719 39.0547 67.5417 39.237 67.875 39.4453L68.1953 38.9141H68.8203L68.8828 42.5938H68.25C68.1354 42.1719 68.0052 41.7682 67.8594 41.3828C67.7188 40.9974 67.5339 40.6484 67.3047 40.3359C67.0807 40.0339 66.8073 39.7943 66.4844 39.6172C66.1615 39.4349 65.7656 39.3438 65.2969 39.3438C64.8021 39.3438 64.3802 39.5026 64.0312 39.8203C63.6823 40.138 63.5078 40.526 63.5078 40.9844C63.5078 41.4635 63.6198 41.862 63.8438 42.1797C64.0677 42.4922 64.3932 42.75 64.8203 42.9531C65.2005 43.1354 65.5729 43.2943 65.9375 43.4297C66.3073 43.5599 66.6641 43.7005 67.0078 43.8516C67.3203 43.987 67.6198 44.1406 67.9062 44.3125C68.1979 44.4844 68.4505 44.6849 68.6641 44.9141ZM75.5938 50H70.6016V49.4453C70.7422 49.4349 70.9453 49.4193 71.2109 49.3984C71.4766 49.3776 71.6641 49.3464 71.7734 49.3047C71.9453 49.237 72.0703 49.1458 72.1484 49.0312C72.2266 48.9115 72.2656 48.7474 72.2656 48.5391V40.5078C72.2656 40.3255 72.237 40.1745 72.1797 40.0547C72.1224 39.9297 71.987 39.8255 71.7734 39.7422C71.6172 39.6797 71.4193 39.6224 71.1797 39.5703C70.9453 39.513 70.7526 39.4792 70.6016 39.4688V38.9141H75.5938V39.4688C75.4323 39.474 75.2396 39.4948 75.0156 39.5312C74.7917 39.5625 74.5964 39.6042 74.4297 39.6562C74.2318 39.7188 74.099 39.8203 74.0312 39.9609C73.9635 40.1016 73.9297 40.2578 73.9297 40.4297V48.4531C73.9297 48.625 73.9661 48.7786 74.0391 48.9141C74.1172 49.0443 74.2474 49.1484 74.4297 49.2266C74.5391 49.2682 74.7161 49.3151 74.9609 49.3672C75.2109 49.4141 75.4219 49.4401 75.5938 49.4453V50ZM88.3594 39.4688C88.2135 39.474 87.9896 39.5156 87.6875 39.5938C87.3854 39.6719 87.1693 39.7526 87.0391 39.8359C86.8516 39.9661 86.724 40.2161 86.6562 40.5859C86.5938 40.9557 86.5625 41.4245 86.5625 41.9922V50.1094H85.8828L79.1641 41.0391V46.7578C79.1641 47.3984 79.2031 47.8906 79.2812 48.2344C79.3646 48.5781 79.4896 48.8229 79.6562 48.9688C79.776 49.0833 80.0234 49.1901 80.3984 49.2891C80.7734 49.388 81.0208 49.4401 81.1406 49.4453V50H76.5938V49.4453C76.7344 49.4349 76.9714 49.3854 77.3047 49.2969C77.638 49.2031 77.8464 49.1198 77.9297 49.0469C78.112 48.901 78.237 48.6797 78.3047 48.3828C78.3724 48.0807 78.4062 47.5677 78.4062 46.8438V41.3828C78.4062 41.1432 78.3646 40.9036 78.2812 40.6641C78.1979 40.4245 78.0859 40.2396 77.9453 40.1094C77.7578 39.9375 77.5026 39.7917 77.1797 39.6719C76.862 39.5469 76.6042 39.4792 76.4062 39.4688V38.9141H79.5703L85.8047 47.3672V42.0938C85.8047 41.4479 85.763 40.9531 85.6797 40.6094C85.5964 40.2604 85.4766 40.0286 85.3203 39.9141C85.1745 39.8151 84.9349 39.7188 84.6016 39.625C84.2734 39.5312 84.0234 39.4792 83.8516 39.4688V38.9141H88.3594V39.4688ZM99.9922 45.5703C99.8672 45.5859 99.6979 45.612 99.4844 45.6484C99.276 45.6797 99.1068 45.7266 98.9766 45.7891C98.8203 45.8672 98.7083 45.9792 98.6406 46.125C98.5781 46.2656 98.5469 46.4323 98.5469 46.625V47.4844C98.5469 48.1094 98.5495 48.5312 98.5547 48.75C98.5651 48.9688 98.5755 49.1484 98.5859 49.2891C97.8932 49.6016 97.2031 49.8411 96.5156 50.0078C95.8281 50.1745 95.1536 50.2578 94.4922 50.2578C93.7839 50.2578 93.1016 50.125 92.4453 49.8594C91.7891 49.5938 91.2161 49.2161 90.7266 48.7266C90.2318 48.2318 89.8385 47.6302 89.5469 46.9219C89.2552 46.2135 89.1094 45.4219 89.1094 44.5469C89.1094 43.7031 89.2474 42.9219 89.5234 42.2031C89.8047 41.4792 90.2005 40.8516 90.7109 40.3203C91.2057 39.7995 91.7943 39.3958 92.4766 39.1094C93.1641 38.8177 93.8984 38.6719 94.6797 38.6719C95.3047 38.6719 95.849 38.7474 96.3125 38.8984C96.776 39.0495 97.1849 39.2318 97.5391 39.4453L97.8594 38.9141H98.4844L98.5547 42.7891H97.9141C97.8047 42.362 97.6693 41.9427 97.5078 41.5312C97.3464 41.1146 97.138 40.7422 96.8828 40.4141C96.6276 40.0859 96.3151 39.8255 95.9453 39.6328C95.5807 39.4349 95.1432 39.3359 94.6328 39.3359C94.0755 39.3359 93.5781 39.4505 93.1406 39.6797C92.7031 39.9036 92.3229 40.2396 92 40.6875C91.6823 41.1198 91.4375 41.6589 91.2656 42.3047C91.0938 42.9505 91.0078 43.6719 91.0078 44.4688C91.0078 45.1719 91.0911 45.8359 91.2578 46.4609C91.4297 47.0807 91.6771 47.6172 92 48.0703C92.3229 48.5339 92.7266 48.8984 93.2109 49.1641C93.6953 49.4297 94.2448 49.5625 94.8594 49.5625C95.3177 49.5625 95.7344 49.4922 96.1094 49.3516C96.4896 49.2109 96.7578 49.0625 96.9141 48.9062C96.9557 48.6354 96.9766 48.362 96.9766 48.0859C96.9818 47.8099 96.9844 47.5755 96.9844 47.3828V46.7734C96.9844 46.5547 96.9531 46.362 96.8906 46.1953C96.8333 46.0234 96.7109 45.8984 96.5234 45.8203C96.3516 45.7422 96.1172 45.6849 95.8203 45.6484C95.5286 45.6068 95.2995 45.5807 95.1328 45.5703V45H99.9922V45.5703ZM109.289 46.3672H104.633V45.1406H109.289V46.3672ZM125.789 39.4688C125.643 39.474 125.43 39.5052 125.148 39.5625C124.867 39.6198 124.638 39.7057 124.461 39.8203C124.284 39.9401 124.161 40.1875 124.094 40.5625C124.026 40.9375 123.992 41.3958 123.992 41.9375V46.7578C123.992 47.3724 123.865 47.9062 123.609 48.3594C123.354 48.8125 123.018 49.1849 122.602 49.4766C122.19 49.7578 121.755 49.9583 121.297 50.0781C120.844 50.2031 120.409 50.2656 119.992 50.2656C119.326 50.2656 118.732 50.1771 118.211 50C117.69 49.8281 117.253 49.5938 116.898 49.2969C116.549 49 116.286 48.6615 116.109 48.2812C115.932 47.8958 115.844 47.4948 115.844 47.0781V40.5234C115.844 40.3411 115.812 40.1901 115.75 40.0703C115.693 39.9453 115.573 39.8307 115.391 39.7266C115.26 39.6536 115.094 39.5964 114.891 39.5547C114.688 39.5078 114.521 39.4792 114.391 39.4688V38.9141H119.008V39.4688C118.862 39.474 118.677 39.4974 118.453 39.5391C118.234 39.5807 118.073 39.6198 117.969 39.6562C117.792 39.7188 117.672 39.8229 117.609 39.9688C117.552 40.1146 117.523 40.2734 117.523 40.4453V46.5703C117.523 46.8672 117.555 47.1797 117.617 47.5078C117.685 47.8307 117.815 48.1328 118.008 48.4141C118.211 48.7005 118.487 48.9349 118.836 49.1172C119.185 49.2995 119.664 49.3906 120.273 49.3906C120.846 49.3906 121.326 49.2995 121.711 49.1172C122.102 48.9349 122.409 48.6953 122.633 48.3984C122.846 48.1172 122.997 47.8229 123.086 47.5156C123.174 47.2083 123.219 46.8984 123.219 46.5859V42.0391C123.219 41.4609 123.177 40.9896 123.094 40.625C123.01 40.2552 122.888 40.013 122.727 39.8984C122.544 39.7682 122.294 39.6667 121.977 39.5938C121.664 39.5208 121.424 39.4792 121.258 39.4688V38.9141H125.789V39.4688ZM135.172 41.6484C135.172 42.2266 135.057 42.7396 134.828 43.1875C134.604 43.6302 134.292 43.9974 133.891 44.2891C133.495 44.5807 133.06 44.7943 132.586 44.9297C132.112 45.0651 131.609 45.1328 131.078 45.1328H129.836V48.4922C129.836 48.6745 129.865 48.8359 129.922 48.9766C129.984 49.112 130.109 49.2161 130.297 49.2891C130.391 49.3255 130.555 49.3594 130.789 49.3906C131.029 49.4219 131.247 49.4401 131.445 49.4453V50H126.688V49.4453C126.812 49.4349 126.992 49.4167 127.227 49.3906C127.466 49.3646 127.633 49.3307 127.727 49.2891C127.883 49.2214 127.995 49.1224 128.062 48.9922C128.135 48.862 128.172 48.6953 128.172 48.4922V40.4922C128.172 40.3099 128.146 40.1458 128.094 40C128.042 39.8542 127.919 39.7448 127.727 39.6719C127.529 39.6042 127.331 39.5573 127.133 39.5312C126.94 39.5 126.773 39.4792 126.633 39.4688V38.9141H131.695C132.727 38.9141 133.562 39.1641 134.203 39.6641C134.849 40.1589 135.172 40.8203 135.172 41.6484ZM132.797 43.5391C132.974 43.2891 133.091 43.0312 133.148 42.7656C133.206 42.4948 133.234 42.2526 133.234 42.0391C133.234 41.7422 133.198 41.4401 133.125 41.1328C133.057 40.8255 132.938 40.5573 132.766 40.3281C132.583 40.0833 132.344 39.8932 132.047 39.7578C131.75 39.6224 131.38 39.5547 130.938 39.5547H129.836V44.4531H130.633C131.195 44.4531 131.651 44.3672 132 44.1953C132.354 44.0182 132.62 43.7995 132.797 43.5391Z" fill="url(#paint0_linear_1_72)"/>
<defs>
<linearGradient id="paint0_linear_1_72" x1="54" y1="52" x2="204.5" y2="50" gradientUnits="userSpaceOnUse">
<stop offset="0.0123656" stop-color="#D9BE80"/>
<stop offset="0.989583" stop-color="#FF8E33"/>
</linearGradient>
</defs>
</svg>
